<svg version="1.2" xmlns="http://www.w3.org/2000/svg" viewBox="0 0 448 512" height="17px" weight="15px">
	<title>bag-shopping-svg</title>
	<style>
		.s0 { fill: #000000 } 
	</style>
	<path id="Layer" fill-rule="evenodd" class="s0" d="m128 128v-32c0-53 43-96 96-96 53 0 96 43 96 96v32h80c26.5 0 48 21.5 48 48v240c0 53-43 96-96 96h-256c-53 0-96-43-96-96v-240c0-26.5 21.5-48 48-48zm0 16h-80c-17.7 0-32 14.3-32 32v240c0 44.2 35.8 80 80 80h256c44.2 0 80-35.8 80-80v-240c0-17.7-14.3-32-32-32h-80v88c0 4.4-3.6 8-8 8-4.4 0-8-3.6-8-8v-88h-160v88c0 4.4-3.6 8-8 8-4.4 0-8-3.6-8-8zm16-48v32h160v-32c0-44.2-35.8-80-80-80-44.2 0-80 35.8-80 80z"/>
</svg>